<svg width="29" height="42" viewBox="0 0 29 42" fill="none" xmlns="http://www.w3.org/2000/svg">
<g clip-path="url(#clip0_102_159)">
<g filter="url(#filter0_f_102_159)">
<ellipse cx="13.5" cy="39.5" rx="4.5" ry="2.5" fill="black" fill-opacity="0.12"/>
</g>
<mask id="path-2-outside-1_102_159" maskUnits="userSpaceOnUse" x="0" y="0" width="27" height="40" fill="black">
<rect fill="white" width="27" height="40"/>
<path fill-rule="evenodd" clip-rule="evenodd" d="M26 13.5C26 16.3253 25.0627 18.9316 23.4821 21.025C22.9203 21.8066 22.1609 22.6384 21.3202 23.5591C18.4001 26.7571 14.5 31.0285 14.5 38C14.5 38.5523 14.0523 39 13.5 39C12.9477 39 12.5 38.5523 12.5 38C12.5 31.0285 8.59989 26.7571 5.67984 23.5591C4.83915 22.6384 4.07969 21.8066 3.51793 21.025C1.93731 18.9316 1 16.3253 1 13.5C1 6.59644 6.59644 1 13.5 1C20.4036 1 26 6.59644 26 13.5Z"/>
</mask>
<path fill-rule="evenodd" clip-rule="evenodd" d="M26 13.5C26 16.3253 25.0627 18.9316 23.4821 21.025C22.9203 21.8066 22.1609 22.6384 21.3202 23.5591C18.4001 26.7571 14.5 31.0285 14.5 38C14.5 38.5523 14.0523 39 13.5 39C12.9477 39 12.5 38.5523 12.5 38C12.5 31.0285 8.59989 26.7571 5.67984 23.5591C4.83915 22.6384 4.07969 21.8066 3.51793 21.025C1.93731 18.9316 1 16.3253 1 13.5C1 6.59644 6.59644 1 13.5 1C20.4036 1 26 6.59644 26 13.5Z" fill="#219EBC"/>
<path d="M23.4821 21.025L22.684 20.4224L22.6769 20.4318L22.67 20.4414L23.4821 21.025ZM21.3202 23.5591L22.0586 24.2334L22.0586 24.2334L21.3202 23.5591ZM5.67984 23.5591L6.41831 22.8848L6.41831 22.8848L5.67984 23.5591ZM3.51793 21.025L4.32995 20.4414L4.32309 20.4318L4.316 20.4225L3.51793 21.025ZM24.2801 21.6276C25.9873 19.3666 27 16.5501 27 13.5H25C25 16.1004 24.1381 18.4966 22.684 20.4224L24.2801 21.6276ZM22.0586 24.2334C22.8872 23.326 23.6911 22.4477 24.2941 21.6086L22.67 20.4414C22.1496 21.1656 21.4345 21.9508 20.5817 22.8848L22.0586 24.2334ZM15.5 38C15.5 31.4506 19.1345 27.4359 22.0586 24.2334L20.5817 22.8848C17.6658 26.0783 13.5 30.6065 13.5 38H15.5ZM13.5 40C14.6046 40 15.5 39.1046 15.5 38H13.5V40ZM11.5 38C11.5 39.1046 12.3954 40 13.5 40V38H11.5ZM4.94136 24.2334C7.86553 27.4359 11.5 31.4506 11.5 38H13.5C13.5 30.6065 9.33425 26.0783 6.41831 22.8848L4.94136 24.2334ZM2.70591 21.6087C3.30894 22.4477 4.11284 23.326 4.94136 24.2334L6.41831 22.8848C5.56546 21.9508 4.85045 21.1656 4.32995 20.4414L2.70591 21.6087ZM0 13.5C0 16.5501 1.01274 19.3666 2.71987 21.6276L4.316 20.4225C2.86188 18.4966 2 16.1004 2 13.5H0ZM13.5 0C6.04416 0 0 6.04416 0 13.5H2C2 7.14873 7.14873 2 13.5 2V0ZM27 13.5C27 6.04416 20.9558 0 13.5 0V2C19.8513 2 25 7.14873 25 13.5H27Z" fill="url(#paint0_linear_102_159)" mask="url(#path-2-outside-1_102_159)"/>
<circle cx="13.5" cy="13.5" r="4.5" fill="black" fill-opacity="0.4"/>
</g>
<ellipse cx="13.5" cy="13" rx="5.5" ry="5" fill="#219EBC"/>
<g clip-path="url(#clip1_102_159)">
<path d="M13.9895 6.17896C13.6978 5.94165 13.302 5.94165 13.0103 6.17896L8.427 9.92896C8.13533 10.1692 8.01294 10.5911 8.12492 10.9778C8.2369 11.3645 8.55461 11.6252 8.91658 11.6252H9.33325V13.7639C9.37752 13.7932 9.41919 13.8225 9.46086 13.8547C9.92961 14.218 10.5051 14.4495 11.0025 14.4495C11.552 14.4495 12.0963 14.2004 12.5442 13.8547C13.1197 13.4006 13.8879 13.4006 14.4635 13.8547C14.9426 14.2268 15.4947 14.4495 16.0051 14.4495C16.4999 14.4495 17.078 14.218 17.5468 13.8547C17.5859 13.8254 17.6249 13.7961 17.664 13.7698L17.6562 11.6252H18.0833C18.4452 11.6252 18.7629 11.3645 18.8749 10.9778C18.9869 10.5911 18.8645 10.1692 18.5728 9.92896L13.9895 6.17896ZM13.0181 15.0793C12.4322 15.5334 11.7161 15.844 10.9999 15.844C10.2994 15.844 9.55981 15.5276 8.98429 15.0793C8.6744 14.8303 8.25252 14.8508 7.96346 15.1292C7.58846 15.4778 7.11711 15.7444 6.64575 15.8674C6.19783 15.9846 5.91919 16.4885 6.02336 16.9924C6.12752 17.4963 6.57544 17.8098 7.02336 17.6926C7.66138 17.5256 8.19263 17.2092 8.53898 16.9602C9.29419 17.4172 10.1405 17.719 10.9999 17.719C11.8306 17.719 12.578 17.429 13.0937 17.1653C13.2447 17.0862 13.3827 17.01 13.4999 16.9397C13.6171 17.01 13.7525 17.0891 13.9062 17.1653C14.4218 17.429 15.1692 17.719 15.9999 17.719C16.8593 17.719 17.7056 17.4172 18.4609 16.9631C18.8098 17.2092 19.3385 17.5286 19.9765 17.6956C20.4244 17.8127 20.8723 17.4993 20.9765 16.9954C21.0806 16.4915 20.802 15.9875 20.3541 15.8704C19.8827 15.7473 19.4114 15.4807 19.0364 15.1321C18.7473 14.8538 18.3254 14.8362 18.0155 15.0823C17.4426 15.5276 16.7004 15.844 15.9999 15.844C15.2838 15.844 14.5676 15.5334 13.9817 15.0793C13.6926 14.8479 13.3072 14.8479 13.0181 15.0793ZM15.9999 19.1252C15.2838 19.1252 14.5676 18.8147 13.9817 18.3606C13.6926 18.1292 13.3072 18.1292 13.0181 18.3606C12.4322 18.8147 11.7161 19.1252 10.9999 19.1252C10.2994 19.1252 9.55981 18.8088 8.98429 18.3606C8.6744 18.1116 8.25252 18.1321 7.96346 18.4104C7.58846 18.759 7.11711 19.0256 6.64575 19.1487C6.19783 19.2659 5.91919 19.7698 6.02336 20.2737C6.12752 20.7776 6.57544 21.0911 7.02336 20.9739C7.66138 20.8069 8.19263 20.4905 8.53898 20.2415C9.29419 20.6985 10.1405 21.0002 10.9999 21.0002C11.8306 21.0002 12.578 20.7102 13.0937 20.4465C13.2447 20.3674 13.3827 20.2913 13.4999 20.2209C13.6171 20.2913 13.7525 20.3704 13.9062 20.4465C14.4218 20.7102 15.1692 21.0002 15.9999 21.0002C16.8593 21.0002 17.7056 20.6985 18.4609 20.2444C18.8098 20.4905 19.3385 20.8098 19.9765 20.9768C20.4244 21.094 20.8723 20.7805 20.9765 20.2766C21.0806 19.7727 20.802 19.2688 20.3541 19.1516C19.8827 19.0286 19.4114 18.762 19.0364 18.4133C18.7473 18.1379 18.3254 18.1174 18.0155 18.3635C17.4426 18.8088 16.7004 19.1252 15.9999 19.1252Z" fill="white"/>
</g>
<defs>
<filter id="filter0_f_102_159" x="7" y="35" width="13" height="9" filterUnits="userSpaceOnUse" color-interpolation-filters="sRGB">
<feFlood flood-opacity="0" result="BackgroundImageFix"/>
<feBlend mode="normal" in="SourceGraphic" in2="BackgroundImageFix" result="shape"/>
<feGaussianBlur stdDeviation="1" result="effect1_foregroundBlur_102_159"/>
</filter>
<linearGradient id="paint0_linear_102_159" x1="13.5" y1="1" x2="13.5" y2="39" gradientUnits="userSpaceOnUse">
<stop stop-color="white"/>
<stop offset="1" stop-color="white" stop-opacity="0.35"/>
</linearGradient>
<clipPath id="clip0_102_159">
<rect width="29" height="42" fill="white"/>
</clipPath>
<clipPath id="clip1_102_159">
<rect width="15" height="15" fill="white" transform="translate(6 6)"/>
</clipPath>
</defs>
</svg>
