<svg width="29" height="42" viewBox="0 0 29 42" fill="none" xmlns="http://www.w3.org/2000/svg">
<g clip-path="url(#clip0_102_223)">
<g filter="url(#filter0_f_102_223)">
<ellipse cx="13.5" cy="39.5" rx="4.5" ry="2.5" fill="black" fill-opacity="0.12"/>
</g>
<mask id="path-2-outside-1_102_223" maskUnits="userSpaceOnUse" x="0" y="0" width="27" height="40" fill="black">
<rect fill="white" width="27" height="40"/>
<path fill-rule="evenodd" clip-rule="evenodd" d="M26 13.5C26 16.3253 25.0627 18.9316 23.4821 21.025C22.9203 21.8066 22.1609 22.6384 21.3202 23.5591C18.4001 26.7571 14.5 31.0285 14.5 38C14.5 38.5523 14.0523 39 13.5 39C12.9477 39 12.5 38.5523 12.5 38C12.5 31.0285 8.59989 26.7571 5.67984 23.5591C4.83915 22.6384 4.07969 21.8066 3.51793 21.025C1.93731 18.9316 1 16.3253 1 13.5C1 6.59644 6.59644 1 13.5 1C20.4036 1 26 6.59644 26 13.5Z"/>
</mask>
<path fill-rule="evenodd" clip-rule="evenodd" d="M26 13.5C26 16.3253 25.0627 18.9316 23.4821 21.025C22.9203 21.8066 22.1609 22.6384 21.3202 23.5591C18.4001 26.7571 14.5 31.0285 14.5 38C14.5 38.5523 14.0523 39 13.5 39C12.9477 39 12.5 38.5523 12.5 38C12.5 31.0285 8.59989 26.7571 5.67984 23.5591C4.83915 22.6384 4.07969 21.8066 3.51793 21.025C1.93731 18.9316 1 16.3253 1 13.5C1 6.59644 6.59644 1 13.5 1C20.4036 1 26 6.59644 26 13.5Z" fill="#FAA307"/>
<path d="M23.4821 21.025L22.684 20.4224L22.6769 20.4318L22.67 20.4414L23.4821 21.025ZM21.3202 23.5591L22.0586 24.2334L22.0586 24.2334L21.3202 23.5591ZM5.67984 23.5591L6.41831 22.8848L6.41831 22.8848L5.67984 23.5591ZM3.51793 21.025L4.32995 20.4414L4.32309 20.4318L4.316 20.4225L3.51793 21.025ZM24.2801 21.6276C25.9873 19.3666 27 16.5501 27 13.5H25C25 16.1004 24.1381 18.4966 22.684 20.4224L24.2801 21.6276ZM22.0586 24.2334C22.8872 23.326 23.6911 22.4477 24.2941 21.6086L22.67 20.4414C22.1496 21.1656 21.4345 21.9508 20.5817 22.8848L22.0586 24.2334ZM15.5 38C15.5 31.4506 19.1345 27.4359 22.0586 24.2334L20.5817 22.8848C17.6658 26.0783 13.5 30.6065 13.5 38H15.5ZM13.5 40C14.6046 40 15.5 39.1046 15.5 38H13.5V40ZM11.5 38C11.5 39.1046 12.3954 40 13.5 40V38H11.5ZM4.94136 24.2334C7.86553 27.4359 11.5 31.4506 11.5 38H13.5C13.5 30.6065 9.33425 26.0783 6.41831 22.8848L4.94136 24.2334ZM2.70591 21.6087C3.30894 22.4477 4.11284 23.326 4.94136 24.2334L6.41831 22.8848C5.56546 21.9508 4.85045 21.1656 4.32995 20.4414L2.70591 21.6087ZM0 13.5C0 16.5501 1.01274 19.3666 2.71987 21.6276L4.316 20.4225C2.86188 18.4966 2 16.1004 2 13.5H0ZM13.5 0C6.04416 0 0 6.04416 0 13.5H2C2 7.14873 7.14873 2 13.5 2V0ZM27 13.5C27 6.04416 20.9558 0 13.5 0V2C19.8513 2 25 7.14873 25 13.5H27Z" fill="url(#paint0_linear_102_223)" mask="url(#path-2-outside-1_102_223)"/>
<circle cx="13.5" cy="13.5" r="4.5" fill="black" fill-opacity="0.4"/>
</g>
<ellipse cx="13.5" cy="13" rx="5.5" ry="5" fill="#FAA307"/>
<path d="M12.0448 11.8537C12.9777 12.4362 13.1915 12.3163 13.6969 11.4767L13.7357 11.7337C13.7746 11.9051 13.7552 11.9393 13.8718 12.0935C14.0079 12.2649 14.2217 12.3334 14.2605 12.3506C14.6104 12.3848 14.9214 12.2477 15.2324 12.0764C16.5346 11.3568 16.8262 9.69476 15.7377 8.54677C14.727 7.45018 14.3383 6.3536 15.3684 5C14.3966 5.13707 13.8912 5.61683 13.5997 6.25079C13.2304 7.0561 13.4053 7.82714 13.7746 8.58104C13.9301 8.90659 13.9884 9.23214 13.6191 9.47201C13.2693 9.71189 12.8805 9.79756 12.4529 9.62622C12.0253 9.47201 11.8893 9.1636 11.9281 8.78665C11.9476 8.49537 12.0448 8.22122 12.1225 7.91281C10.451 8.88945 10.4315 10.8256 12.0448 11.8537ZM20.8301 13.8241C21.2188 13.0702 20.9273 12.2306 20.0915 11.7337C20.1304 11.9222 20.1887 12.0764 20.2081 12.2477C20.247 12.5219 20.2276 12.796 19.8971 12.916C19.6056 13.0359 19.2752 13.0359 19.003 12.8474C18.7115 12.6418 18.8087 12.3677 18.9059 12.1278C18.9836 11.9222 19.0808 11.7166 19.1391 11.511C19.3335 10.6371 18.7892 9.8661 17.7785 9.64336C18.4394 10.5686 18.245 11.391 17.487 12.1449C17.3509 12.282 17.2538 12.4362 17.1566 12.5733C16.554 13.4814 17.5259 15.1092 18.6532 14.9035C18.3616 15.6574 17.6231 16.1201 17.0594 16.6855C17.3121 16.9768 17.7008 16.7883 17.9729 16.9768C17.7785 17.4223 17.2149 17.5765 17.0011 17.9877C17.2732 18.1076 17.6036 17.9706 17.8369 18.3475C17.5647 18.5188 17.2732 18.7073 16.8456 18.9986C17.3898 19.0671 17.7397 19.1014 18.0895 19.1699C18.245 19.2042 18.5366 19.1357 18.5366 19.3927C18.5366 19.6497 18.2645 19.5983 18.0895 19.5983H14.4743C14.2411 19.5983 14.0467 19.5812 14.0273 19.307C14.0079 19.0157 14.1633 18.9643 14.4549 18.9301C15.1546 18.8273 15.8932 18.8787 16.5929 18.5874C16.1459 18.1076 15.5433 17.8506 15.1546 17.3366L16.5929 17.0453C16.0487 16.4627 15.3101 16.1201 14.9214 15.5032C15.4462 15.2805 16.0681 15.4004 16.5929 15.1263C15.6405 14.3552 14.6493 13.6527 14.0856 12.6761L13.7552 12.1278C13.6969 12.0593 13.6386 11.9393 13.5608 12.1107C12.9194 13.3443 11.8504 14.2524 10.6259 15.1606C11.2479 15.2805 11.7921 15.3662 12.6279 15.5204C11.8893 16.0858 11.3062 16.5484 10.6453 17.0453C11.209 17.1652 11.6172 17.2338 12.0836 17.3195C11.7338 17.8677 11.0924 18.0905 10.7231 18.6045C11.4228 18.8615 12.1419 18.8273 12.8417 18.9301C13.0749 18.9643 13.2693 18.9643 13.2498 19.2556C13.2498 19.5126 13.1138 19.5983 12.8417 19.5983C11.5589 19.5812 10.2955 19.5983 9.01266 19.5983C8.85717 19.5983 8.70168 19.5983 8.68224 19.4098C8.68224 19.2213 8.83774 19.2042 8.97379 19.1871C9.38196 19.1357 9.77069 19.0843 10.2177 19.0157C10.0039 18.6388 9.57632 18.5188 9.44027 18.1419C9.71238 18.0905 9.94562 18.0391 10.2177 17.9706C9.94562 17.5422 9.38196 17.4051 9.2459 16.9596C9.53745 16.7883 9.92618 16.9939 10.1594 16.6684C9.57632 16.1543 8.93492 15.6746 8.58506 14.9892C9.47914 15.0063 10.2955 14.4752 10.5482 13.7042C10.762 13.0188 10.4315 12.2477 9.69294 11.8708C9.75125 12.025 9.79013 12.1449 9.829 12.2649C9.90675 12.5733 9.86787 12.8474 9.55689 13.0188C9.2459 13.1901 8.89605 13.1387 8.58506 12.9502C8.29351 12.7446 8.42957 12.4876 8.52675 12.2306C8.6045 12.0764 8.66281 11.9051 8.70168 11.7509C8.93492 10.7228 8.449 9.98604 7.4383 9.79756C8.00196 10.9798 7.98253 11.1512 7.08845 12.2649C6.50535 13.0188 6.44704 13.7213 6.97183 14.4238C7.28281 14.835 7.65211 15.1777 8.29351 14.9035C8.0214 15.6746 7.30225 16.1543 6.68028 16.7026C6.95239 16.9596 7.34112 16.8054 7.84647 17.0453C7.36056 17.3709 6.99126 17.6279 6.5831 17.8849C6.91352 18.1248 7.24394 17.9706 7.4383 18.2276C7.20507 18.4503 6.95239 18.6902 6.66084 18.9643C7.06901 19.1528 7.47718 19.0843 7.84647 19.1871C8.00196 19.2213 8.2352 19.1871 8.19633 19.4098C8.17689 19.6154 7.96309 19.5983 7.78816 19.5983H6.31098C6.17493 19.5983 6 19.6154 6 19.7868C6 19.9581 6.15549 19.9924 6.31098 19.9753L6.68028 19.9924H19.8777C20.0332 19.9924 20.1887 20.0095 20.3247 19.9924C20.4608 19.9753 20.6357 19.9924 20.6357 19.8039C20.6357 19.6154 20.4997 19.6154 20.3442 19.5983C20.0721 19.5983 19.7999 19.6154 19.5278 19.5983C19.3529 19.5812 19.0419 19.7011 19.0225 19.3927C19.0225 19.1185 19.314 19.2213 19.4695 19.1699C19.7999 19.0843 20.1887 19.1528 20.5191 18.9643C20.3053 18.6388 19.8971 18.5017 19.7611 18.1248C20.0526 18.0734 20.2664 18.0391 20.558 17.9877C20.2859 17.5593 19.7222 17.4051 19.5667 16.9425C19.8777 16.7883 20.247 16.9939 20.4997 16.6512C19.7611 16.1372 19.1974 15.4861 18.7115 14.7836C19.5667 14.9892 20.4414 14.5951 20.8301 13.8241Z" fill="white"/>
<defs>
<filter id="filter0_f_102_223" x="7" y="35" width="13" height="9" filterUnits="userSpaceOnUse" color-interpolation-filters="sRGB">
<feFlood flood-opacity="0" result="BackgroundImageFix"/>
<feBlend mode="normal" in="SourceGraphic" in2="BackgroundImageFix" result="shape"/>
<feGaussianBlur stdDeviation="1" result="effect1_foregroundBlur_102_223"/>
</filter>
<linearGradient id="paint0_linear_102_223" x1="13.5" y1="1" x2="13.5" y2="39" gradientUnits="userSpaceOnUse">
<stop stop-color="white"/>
<stop offset="1" stop-color="white" stop-opacity="0.35"/>
</linearGradient>
<clipPath id="clip0_102_223">
<rect width="29" height="42" fill="white"/>
</clipPath>
</defs>
</svg>
